<?xml version="1.0" encoding="utf-8"?>
<!-- Generator: Adobe Illustrator 19.0.0, SVG Export Plug-In . SVG Version: 6.00 Build 0)  -->
<svg version="1.1" id="Layer_1" xmlns="http://www.w3.org/2000/svg" xmlns:xlink="http://www.w3.org/1999/xlink" x="0px" y="0px"
	 viewBox="0 0 200 200" style="enable-background:new 0 0 200 200;" xml:space="preserve">
<g>
	<path id="XMLID_6_" d="M135.8,195.6L135.8,195.6c-8.7,0-17.1-1.6-25.7-4.6c-9.4-3.4-18.5-8.3-28-15.1c-5.2-3.8-10.4-8-15.8-12.9
		c-5.5-5-10.9-10.5-16.5-16.9c-5.2-5.8-9.8-11.4-14-17.1c-4.5-6.1-8.4-11.9-11.8-17.7c-4.8-8.4-8.4-16.4-10.9-24.4
		c-1.5-4.9-2.6-9.8-3.3-14.5c-0.6-4.9-0.8-9.5-0.5-13.9c0.5-7.4,2.2-14.5,4.9-20.9c2.3-5.3,5.3-10.2,9-14.6c2.8-3.4,6.1-6.5,10-9.4
		c1.3-1,2.5-2.1,3.9-3.3c0.7-0.6,1.4-1.3,2.1-1.9c2-1.7,5.2-4.1,9.5-4.8c3.2-0.5,6.5,0.1,9.6,1.8c4,2.2,6.8,5.3,9.1,8.1
		c2.7,3.3,5,6.9,7.2,10.4c0.7,1.2,1.5,2.3,2.2,3.5c2.3,3.5,4,6.6,5.4,9.7c1.7,3.8,2.7,7.1,3,10.3c0.6,6.2-1.1,11.5-5.2,15.7
		c-1.4,1.5-2.9,2.8-4.3,4c-0.9,0.8-1.7,1.5-2.6,2.3c-1.6,1.5-3.3,2.7-5,3.8c-0.9,0.6-1.7,1.2-2.5,1.8c-2.3,1.7-3.7,3.7-4.3,5.9
		c-0.5,1.8-0.5,3.7-0.1,6c0.6,3.4,2,6.8,4.4,11.1c2.8,4.9,6.3,9.8,11.4,15.8c4.8,5.7,9.3,10.6,13.8,14.7c3.7,3.5,8.3,7.5,13.8,10.3
		c3.3,1.7,6,2.5,8.7,2.5c0,0,0.1,0,0.1,0c2.5,0,4.7-0.8,6.6-2.4c0.8-0.6,1.5-1.4,2.3-2.2c0.5-0.5,1-1,1.5-1.5l0.1-0.1
		c1.4-1.3,2.9-2.7,4.4-4l0.4-0.3c1.9-1.6,3.8-3.3,5.9-4.8c3-2.2,6.4-3.5,10.2-3.8c3.4-0.3,6.8,0.2,10.4,1.6
		c3.9,1.5,7.7,3.7,11.3,6.6c3.6,2.8,7.2,5.9,11.2,9.3c2.2,1.9,4.4,4,6.5,6.2c2.9,2.9,4.8,6,6.1,9.2c2,5.2,1.1,10.3-2.6,14.6
		c-1.3,1.5-2.7,2.8-4.1,4.1c-0.4,0.3-0.8,0.7-1.2,1c-1,0.9-2,1.8-3.1,2.7c-0.9,0.8-1.8,1.6-2.7,2.4c-3.3,3-7,5.6-11.1,7.9
		c-5.3,3-11.2,5.1-17.4,6.4C144.6,195.1,140.3,195.6,135.8,195.6L135.8,195.6z M51.1,9.4c-0.4,0-0.9,0-1.3,0.1
		c-2.1,0.4-4.2,1.4-6.6,3.5c-0.7,0.6-1.4,1.2-2,1.8c-1.3,1.2-2.7,2.4-4.2,3.6c-3.5,2.7-6.5,5.5-9,8.5c-3.3,4-6.1,8.4-8.1,13.1
		c-2.5,5.8-4,12.1-4.5,18.9c-0.3,4-0.1,8.2,0.5,12.7c0.6,4.4,1.6,8.9,3,13.5c2.4,7.6,5.8,15.2,10.4,23.2c3.3,5.6,7,11.3,11.4,17.2
		c4.1,5.5,8.6,10.9,13.7,16.6c5.5,6.2,10.8,11.5,16.1,16.4c5.2,4.8,10.2,8.8,15.2,12.5c9,6.5,17.7,11.2,26.5,14.4
		c7.9,2.8,15.7,4.2,23.6,4.3c4.1,0,8-0.4,11.6-1.2c5.6-1.1,10.8-3.1,15.7-5.7c3.7-2,7.1-4.4,10-7.1c0.9-0.8,1.8-1.6,2.7-2.4
		c1-0.9,2-1.8,3-2.7c0.4-0.4,0.8-0.7,1.2-1.1c1.3-1.2,2.5-2.3,3.6-3.5c2.3-2.6,2.7-5.4,1.5-8.6c-0.9-2.5-2.5-4.8-4.7-7.1
		c-2-2.1-4.1-4.1-6.2-5.8c-3.9-3.4-7.5-6.4-11-9.2c-3.2-2.5-6.4-4.4-9.8-5.7c-2.7-1.1-5.3-1.5-7.7-1.3c-2.6,0.2-5,1.1-7.1,2.7
		c-1.9,1.4-3.7,3-5.5,4.5l-0.4,0.3c-1.4,1.2-2.9,2.6-4.2,3.9l-0.1,0.1c-0.5,0.4-0.9,0.9-1.4,1.4c-0.8,0.9-1.7,1.7-2.7,2.6
		c-3,2.5-6.5,3.8-10.4,3.8c-0.1,0-0.1,0-0.2,0c-3.7,0-7.3-1-11.5-3.2C95.9,141,90.8,136.6,87,133c-4.7-4.3-9.3-9.3-14.3-15.3
		c-5.3-6.3-9-11.5-12-16.7c-2.8-4.9-4.4-8.9-5.1-13c-0.6-3.1-0.5-5.9,0.2-8.6c1-3.6,3.1-6.6,6.5-9.1c0.9-0.7,1.8-1.3,2.7-1.9
		c1.6-1.1,3-2.1,4.3-3.3c0.9-0.8,1.8-1.6,2.7-2.4c1.4-1.2,2.7-2.4,3.9-3.6c2.9-3,4-6.6,3.6-11c-0.3-2.6-1-5.2-2.5-8.4
		c-1.3-2.8-2.8-5.6-5-8.9c-0.8-1.2-1.5-2.4-2.3-3.5c-2.2-3.5-4.3-6.8-6.8-9.8c-1.9-2.3-4.3-5-7.3-6.7C54.1,9.8,52.6,9.4,51.1,9.4z"
		/>
</g>
</svg>
