<svg width="30" height="30" viewBox="0 0 30 30" fill="none" xmlns="http://www.w3.org/2000/svg">
<path fill-rule="evenodd" clip-rule="evenodd" d="M4.2276 10.6686C4.2276 10.6686 4.8402 3.01769 12.4617 1.53419C20.0823 0.0503944 25.0722 4.79069 25.713 10.6686H26.8704C26.8704 10.6686 28.0512 10.4685 28.929 12.2124C29.8074 13.9563 29.5353 18.8337 28.6716 19.803C27.8076 20.772 27.2565 20.7036 27.2565 20.7036H25.8414C25.8414 20.7036 24.459 27.5223 20.5662 27.5223H17.736C17.736 27.5223 17.3154 28.5444 16.4493 28.6803C15.5835 28.8159 13.6188 28.6803 13.6188 28.6803C13.6188 28.6803 12.2325 28.2441 12.2037 27.0075C12.1749 25.7715 13.0788 25.0662 13.4901 25.0779C13.9017 25.0896 16.3206 25.0779 16.3206 25.0779C16.3206 25.0779 17.3892 25.0191 17.736 26.2353C18.6282 26.2257 19.5966 26.2353 20.1801 26.2353C20.7636 26.2353 23.2407 26.0724 24.2973 20.832H23.1393C23.1393 20.832 22.2597 20.8788 22.2387 19.4166C22.2183 17.9544 22.2387 11.9547 22.2387 11.9547C22.2387 11.9547 22.53 10.3191 23.7825 10.797C23.7177 9.4569 22.1193 3.24239 15.0342 3.07769C7.9494 2.91329 5.8953 9.86489 6.2862 10.7973C7.086 10.8207 7.6806 10.9539 7.7013 11.955C7.722 12.9561 7.7013 19.2882 7.7013 19.2882C7.7013 19.2882 7.8033 20.5746 6.672 20.5746C5.5407 20.5746 2.8566 20.5746 2.4267 20.5746C1.9965 20.5746 0.754197 19.6539 0.625497 18.2592C0.496797 16.8645 0.466197 14.6931 0.754197 13.3701C1.0422 12.0471 1.7355 10.8192 2.6841 10.797C3.6321 10.7751 4.2276 10.6686 4.2276 10.6686Z" fill="#414042"/>
</svg>
