<?xml version="1.0" encoding="utf-8"?>
<!-- Generator: Adobe Illustrator 19.0.0, SVG Export Plug-In . SVG Version: 6.00 Build 0)  -->
<svg version="1.1" id="Layer_1" xmlns="http://www.w3.org/2000/svg" xmlns:xlink="http://www.w3.org/1999/xlink" x="0px" y="0px"
	 viewBox="0 0 200 200" style="enable-background:new 0 0 200 200;" xml:space="preserve">
<style type="text/css">
	.st0{fill:#231F20;}
</style>
<path id="XMLID_21_" class="st0" d="M190.1,99.4c0-50.3-40.7-91.2-90.7-91.2C50,8.2,9.9,49.1,9.9,99.4c0,51,40.2,92.4,89.6,92.4
	c20,0,40.3-6.8,55.6-18.8c1.4-1.1,1.7-3.2,0.6-4.7c-0.5-0.7-1.3-1.1-2.1-1.2c-0.8-0.1-1.6,0.1-2.3,0.6
	c-14.3,11.2-33.2,17.6-51.8,17.6c-45.9,0-83.3-38.6-83.3-85.9c0-46.7,37.4-84.8,83.3-84.8c46.5,0,84.4,38,84.4,84.8v8.8
	c0,12.7-10.2,23.1-22.8,23.1s-22.8-10.4-22.8-23.1v-44c0-1.8-1.4-3.3-3.1-3.3c-1.7,0-3.1,1.5-3.1,3.3V79l-1-1.3
	c-1.9-2.6-4.1-5.1-6.5-7.3l-1.4-1.3c-6.9-5.4-15.1-8.2-23.7-8.2c-20.8,0-37.7,17.3-37.7,38.5c0,21.2,16.9,38.5,37.7,38.5
	c11.2,0,21.5-4.7,29.2-13.3l4.7-5.3l4,5.8c5.5,8,14.4,12.7,23.8,12.7c16,0,29.1-13.3,29.1-29.7V99.4z M99.4,131.4
	c-17.3,0-31.4-14.4-31.4-32c0-17.6,14.1-32,31.4-32c17.7,0,32.6,14.7,32.6,32C132,116.8,117.1,131.4,99.4,131.4z"/>
</svg>
