<?xml version="1.0" encoding="utf-8"?>
<!-- Generator: Adobe Illustrator 19.0.0, SVG Export Plug-In . SVG Version: 6.00 Build 0)  -->
<svg version="1.1" id="Layer_1" xmlns="http://www.w3.org/2000/svg" xmlns:xlink="http://www.w3.org/1999/xlink" x="0px" y="0px"
	 viewBox="0 0 50 50" style="enable-background:new 0 0 50 50;" xml:space="preserve">
<style type="text/css">
	.st0{fill:#979797;}
</style>
<g id="XMLID_3_">
	<path id="XMLID_18_" class="st0" d="M34.8,3.7V2.1c-0.6,0-1.2,0-1.8,0.1l0.2,1.6C33.8,3.8,34.3,3.7,34.8,3.7z"/>
	<path id="XMLID_16_" class="st0" d="M8.2,6.6c3.9-3.9,10.2-3.9,14.1,0l0,0l2.2,2.2c0.3,0.3,0.8,0.3,1.2,0l0,0l2.2-2.2
		c1.1-1.1,2.5-2,4-2.4l-0.5-1.6c-1.8,0.6-3.4,1.5-4.7,2.9L25,7.1l-1.6-1.6C18.9,1,11.5,1,7,5.5l0,0C6.7,5.8,6.3,6.2,6,6.6l1.3,1
		C7.6,7.3,7.9,6.9,8.2,6.6z"/>
	<rect id="XMLID_15_" x="18.5" y="42.2" class="st0" width="1.6" height="1.6"/>
	<rect id="XMLID_14_" x="29.9" y="42.2" class="st0" width="1.6" height="1.6"/>
	<path id="XMLID_24_" class="st0" d="M48.1,33.3c1.8-1.8,1.8-4.8,0-6.7l-7.3-7.3c3.2-3.3,3-8.6-0.3-11.7c-3.3-3.1-8.4-3-11.6,0.2
		L25,11.7l-3.9-3.9c-3.2-3.2-8.5-3.3-11.8,0C6.2,11,6.1,16.1,9.2,19.4l-7.3,7.3c-1.8,1.8-1.8,4.8,0,6.7l5.1,5.1v0.5H6.2
		c-0.5,0-0.8,0.4-0.8,0.8v8.2h1.6v-7.3h14.7v7.3h1.6v-8.2c0-0.5-0.4-0.8-0.8-0.8h-0.8v-3.3c0-2.4-1.7-4.4-4.1-4.8v-3l2.5,2.5
		c2.7,2.6,7,2.6,9.6,0l2.5-2.5v3c-2.4,0.4-4.1,2.4-4.1,4.8v3.3h-0.8c-0.5,0-0.8,0.4-0.8,0.8v8.2h1.6v-7.3h14.7v7.3h1.6v-8.2
		c0-0.5-0.4-0.8-0.8-0.8h-0.8v-0.5L48.1,33.3z M20.1,35.7v3.3H8.7v-0.8c0-0.2-0.1-0.4-0.2-0.6l-5.4-5.4c-1.2-1.2-1.2-3.2,0-4.4
		l7.3-7.3l1.3,1.3c-0.3,0.5-0.5,1.1-0.5,1.7v2.4L8,29.1l1.2,1.2l2-2v3.4h1.6v-8.2c0-0.9,0.7-1.6,1.6-1.6h0c0.9,0,1.6,0.7,1.6,1.6
		v8.2c0,0.5,0.4,0.8,0.8,0.8C18.6,32.4,20.1,33.9,20.1,35.7z M28.6,29.2c-2,2-5.3,2-7.3,0l-3.7-3.7v-2.1c0-1.8-1.5-3.3-3.3-3.3h0
		c-0.6,0-1.1,0.2-1.6,0.4l-2.2-2.2c-2.6-2.6-2.7-6.8-0.1-9.4s6.8-2.7,9.4-0.1c0,0,0,0,0.1,0.1l4.5,4.5c0.3,0.3,0.8,0.3,1.2,0l0,0
		l4.5-4.5c2.6-2.6,6.8-2.6,9.4,0s2.6,6.8,0,9.4c0,0,0,0,0,0l-2.2,2.2c-0.5-0.3-1.1-0.4-1.6-0.4h0c-1.8,0-3.3,1.5-3.3,3.3v2.1
		L28.6,29.2z M29.9,38.9v-3.3c0-1.8,1.5-3.3,3.3-3.3c0.5,0,0.8-0.4,0.8-0.8v-8.2c0-0.9,0.7-1.6,1.6-1.6h0h0c0.9,0,1.6,0.7,1.6,1.6
		v8.2h1.6v-3.4l2,2l1.2-1.2l-3.2-3.2v-2.4c0-0.6-0.2-1.2-0.5-1.7l1.3-1.3l7.3,7.3c1.2,1.2,1.2,3.2,0,4.4l-5.4,5.4
		c-0.2,0.2-0.2,0.4-0.2,0.6v0.8H29.9z"/>
</g>
</svg>
